<mxfile host="app.diagrams.net" modified="2023-11-06T06:26:45.710Z" agent="Mozilla/5.0 (Windows NT 10.0; Win64; x64) AppleWebKit/537.36 (KHTML, like Gecko) Chrome/114.0.0.0 Safari/537.36" etag="ZUwBLqW87uRbbkEClWVW" version="22.0.8" type="device">
  <diagram name="Page-1" id="ben2kIiIfCoBEz7OFsYk">
    <mxGraphModel dx="1434" dy="1839" grid="1" gridSize="10" guides="1" tooltips="1" connect="1" arrows="1" fold="1" page="1" pageScale="1" pageWidth="850" pageHeight="1100" math="0" shadow="0">
      <root>
        <mxCell id="0" />
        <mxCell id="1" parent="0" />
        <mxCell id="Zk7HNToO3OFMtX9oZNZT-54" value="Tim chuyen xe" style="strokeWidth=1;shadow=0;dashed=0;align=center;html=1;shape=mxgraph.mockup.containers.window;align=left;verticalAlign=top;spacingLeft=8;strokeColor2=#008cff;strokeColor3=#c4c4c4;fontColor=#666666;mainText=;fontSize=17;labelBackgroundColor=none;whiteSpace=wrap;rounded=1;" parent="1" vertex="1">
          <mxGeometry x="160" y="-120" width="550" height="380" as="geometry" />
        </mxCell>
        <mxCell id="Zk7HNToO3OFMtX9oZNZT-163" value="Diem xuat phat" style="strokeWidth=1;shadow=0;dashed=0;align=center;html=1;shape=mxgraph.mockup.forms.comboBox;strokeColor=#999999;fillColor=#ddeeff;align=left;fillColor2=#aaddff;mainText=;fontColor=#666666;fontSize=17;spacingLeft=3;rounded=1;" parent="1" vertex="1">
          <mxGeometry x="360" y="30" width="150" height="30" as="geometry" />
        </mxCell>
        <mxCell id="Zk7HNToO3OFMtX9oZNZT-164" value="Diem den" style="strokeWidth=1;shadow=0;dashed=0;align=center;html=1;shape=mxgraph.mockup.forms.comboBox;strokeColor=#999999;fillColor=#ddeeff;align=left;fillColor2=#aaddff;mainText=;fontColor=#666666;fontSize=17;spacingLeft=3;rounded=1;" parent="1" vertex="1">
          <mxGeometry x="360" y="90" width="150" height="30" as="geometry" />
        </mxCell>
        <mxCell id="Zk7HNToO3OFMtX9oZNZT-165" value="Tim" style="strokeWidth=1;shadow=0;dashed=0;align=center;html=1;shape=mxgraph.mockup.buttons.button;strokeColor=#666666;fontColor=#ffffff;mainText=;buttonStyle=round;fontSize=17;fontStyle=1;fillColor=#008cff;whiteSpace=wrap;rounded=1;" parent="1" vertex="1">
          <mxGeometry x="390" y="170" width="90" height="40" as="geometry" />
        </mxCell>
        <mxCell id="XdHTP9RN4XRd6DVnCNCg-2" value="Tim chuyen xe" style="html=1;whiteSpace=wrap;" vertex="1" parent="1">
          <mxGeometry x="380" y="-60" width="110" height="50" as="geometry" />
        </mxCell>
      </root>
    </mxGraphModel>
  </diagram>
</mxfile>
